<?xml version="1.0" encoding="UTF-8"?>
<svg width="840px" height="244px" viewBox="0 0 840 244" version="1.1" xmlns="http://www.w3.org/2000/svg" xmlns:xlink="http://www.w3.org/1999/xlink">
    <!-- Generator: Sketch 50.2 (55047) - http://www.bohemiancoding.com/sketch -->
    <title>icons</title>
    <desc>Created with Sketch.</desc>
    <defs></defs>
    <g id="icons" stroke="none" stroke-width="1" fill="none" fill-rule="evenodd">
        <g id="Group-2" transform="translate(100.000000, 62.000000)" fill="#555555" fill-rule="nonzero">
            <path d="M30.482333,11.2201007 C30.482333,7.07925448 27.3178693,3.72078926 23.4185304,3.72078926 C22.4643171,3.72078926 21.5588456,3.92385 20.730236,4.28617404 C19.5960533,1.75587808 17.1702145,0 14.3563165,0 C10.5732077,0 7.49497953,3.16137686 7.30938599,7.12703346 C3.21882937,7.48537593 0,11.1205612 0,15.5580354 C0,16.6768602 0.206215045,17.7419335 0.579276808,18.7194122 L23.5610062,18.7194122 L23.5610062,18.711449 C27.3928567,18.6318174 30.482333,15.3111772 30.482333,11.2201007" id="Fill-1"></path>
            <path d="M9,35.2882876 C9,40.2573031 10.7265823,42.5765753 14.9483667,42.5765753 C19.123284,42.5765753 20.8892346,40.5101336 20.8892346,35.2882876 C20.8892346,30.167972 18.9208183,28 14.9483667,28 C10.4491294,28 9,30.2515852 9,35.2882876" id="Fill-2"></path>
            <path d="M14.8268617,48 C3.61251264,48 0,53.4806488 0,65.7160532 C0,72.4946982 1.35539525,77.2407451 4.40175387,80.1054939 L4.40175387,58.9692609 C4.40175387,58.3919313 4.78606373,57.9240954 5.25848364,57.9240954 C5.73277823,57.9240954 6.1170881,58.3919313 6.1170881,58.9692609 L6.1170881,81.3835821 C6.15083237,81.4054808 7.54184658,116.192571 7.54184658,116.192571 C7.59058833,117.092409 8.27297265,118.115675 9.05284046,118.470036 L11.9248536,119.455478 C12.7534632,119.640622 13.4339728,119.055329 13.4339728,118.153501 L13.4339728,85.9823103 C13.4339728,85.0804818 14.058242,84.343889 14.8212377,84.343889 C15.5823587,84.343889 16.2047532,85.0804818 16.2047532,85.9823103 L16.2047532,118.153501 C16.2047532,119.055329 16.8852628,119.640622 17.715747,119.455478 L20.5858854,118.470036 C21.3657534,118.115675 22.0462629,117.092409 22.0968794,116.192571 C22.0968794,116.192571 23.4878935,81.5249283 23.5197632,81.5050204 L23.5197632,59.09269 C23.5197632,58.5153606 23.9059478,58.0475244 24.3802423,58.0475244 C24.8526622,58.0475244 25.2369721,58.5153606 25.2369721,59.09269 L25.2369721,80.2647573 C28.2627092,77.4975571 29.6387259,72.8072525 29.6387259,65.7160532 C29.6387259,53.2716158 24.7326826,48 14.8268617,48" id="Fill-3"></path>
        </g>
        <g id="Group" transform="translate(373.000000, 62.000000)" fill-rule="nonzero">
            <path d="M67.7419355,11.0209164 C67.7419355,6.95358035 64.3281753,3.65473613 60.1171289,3.65473613 C59.0891561,3.65473613 58.1097489,3.85419204 57.2153316,4.21008394 C55.9910725,1.72470694 53.3725747,0 50.3351982,0 C46.2536604,0 42.9289371,3.10525467 42.7306274,7.00051114 C38.313177,7.35249215 34.8387097,10.9231439 34.8387097,15.2818421 C34.8387097,16.380805 35.0633258,17.4269707 35.4639925,18.3870968 L60.2729436,18.3870968 L60.2729436,18.3792749 C64.409118,18.3010569 67.7419355,15.0393663 67.7419355,11.0209164" id="Fill-13" fill="#555555"></path>
            <path d="M9.67741935,35.3225806 C9.67741935,40.2709906 11.5041219,42.5806452 15.970717,42.5806452 C20.3877274,42.5806452 22.2580645,40.5227726 22.2580645,35.3225806 C22.2580645,30.223498 20.1735213,28.0645161 15.970717,28.0645161 C11.2105801,28.0645161 9.67741935,30.3067644 9.67741935,35.3225806" id="Fill-14" fill="#759D59"></path>
            <path d="M45.483871,35.3225806 C45.483871,40.2709906 47.3108615,42.5806452 51.778161,42.5806452 C56.1978515,42.5806452 58.0645161,40.5227726 58.0645161,35.3225806 C58.0645161,30.223498 55.9816278,28.0645161 51.778161,28.0645161 C47.0192571,28.0645161 45.483871,30.3067644 45.483871,35.3225806" id="Fill-15" fill="#555555"></path>
            <path d="M24.9642981,56.7621194 C24.9642981,56.1837063 25.3742011,55.7149923 25.877626,55.7149923 C25.8875752,55.7149923 25.8975242,55.7229703 25.9074733,55.7229703 L25.9074733,55.7090086 L50.3225806,55.7090086 C48.4282708,48.7301556 23.7505071,48.3870968 15.7394865,48.3870968 C3.83438564,48.3870968 0,53.878032 0,66.1364005 C0,72.927768 0.224849808,77.5949633 3.45830942,80.4630945 L4.67210041,59.3769454 C4.67210041,58.7985323 5.08001377,58.3298183 5.58343857,58.3298183 C6.08487353,58.3298183 6.4927869,58.7985323 6.4927869,59.3769454 L4.67210041,99.4789234 C5.56354035,99.9955061 6.8111583,100.412363 8.22393143,100.735476 L8.80495926,116.79342 C8.85072515,117.647078 9.5193051,118.644342 10.2893659,119.01333 L12.9000115,119.960731 C13.7317568,120.1542 14.4102859,119.613683 14.4102859,118.760025 L14.4102859,101.503369 C14.8619753,101.519325 15.3076953,101.529298 15.7394865,101.529298 C16.1653082,101.529298 16.6030689,101.52132 17.0507788,101.507358 L17.0507788,118.760025 C17.0507788,119.613683 17.7293077,120.1542 18.5610531,119.960731 L21.1716986,119.01333 C21.9417595,118.644342 22.6103395,117.647078 22.6561052,116.79342 L23.2331535,100.791323 C24.6459265,100.490149 25.8935446,100.095233 26.7889642,99.5985951 L24.9642981,56.7621194" id="Fill-17" fill="#759D59"></path>
            <path d="M51.7812631,48.3870968 C39.7006781,48.3870968 35.8064516,53.8771923 35.8064516,66.1336864 C35.8064516,72.9240154 37.2688064,77.6782429 40.5490054,80.5479295 L40.5490054,59.3752649 C40.5490054,58.7969402 40.9630699,58.3282979 41.474086,58.3282979 C41.9851023,58.3282979 42.3991668,58.7969402 42.3991668,59.3752649 L42.3991668,81.8282207 C42.4335038,81.8501572 43.9322155,116.697208 43.9322155,116.697208 C43.9867508,117.598597 44.719948,118.623628 45.560196,118.978599 L48.6525511,119.96574 C49.5493542,120.151202 50.2805316,119.564901 50.2805316,118.661518 L50.2805316,86.4348756 C50.2805316,85.5314926 50.9511141,84.7936302 51.7731836,84.7936302 C52.5952533,84.7936302 53.2678556,85.5314926 53.2678556,86.4348756 L53.2678556,118.661518 C53.2678556,119.564901 54.0010529,120.151202 54.8938163,119.96574 L57.9861715,118.978599 C58.8264195,118.623628 59.5616365,117.598597 59.614152,116.697208 C59.614152,116.697208 61.1128634,81.9698106 61.1492204,81.9498683 L61.1492204,59.4989067 C61.1492204,58.9205822 61.563285,58.4519397 62.0743011,58.4519397 C62.5832975,58.4519397 62.9973621,58.9205822 62.9973621,59.4989067 L62.9973621,80.7074674 C66.2573627,77.9354976 67.7419355,73.2371084 67.7419355,66.1336864 C67.7419355,53.667799 62.4540286,48.3870968 51.7812631,48.3870968" id="Fill-16" fill="#555555"></path>
        </g>
        <g id="Group-3" transform="translate(618.000000, 62.000000)" fill-rule="nonzero">
            <polyline id="Fill-132" fill="#49859E" points="69.4058203 64.2722417 81.6310937 47.9714976 69.4058203 31.6699108 69.4058203 64.2722417"></polyline>
            <polyline id="Fill-133" fill="#49859E" points="49.6545061 40.9374416 54.9383777 48.2975462 49.6545061 55.7477984 72.9736977 55.7477984 72.9736977 40.9374416 49.6545061 40.9374416"></polyline>
            <polyline id="Fill-134" fill="#474A49" points="51.6090961 93.75984 39.3838227 77.4590956 51.6090961 61.1575089 51.6090961 93.75984"></polyline>
            <polyline id="Fill-135" fill="#474A49" points="72.1836451 69.582537 66.8989835 76.9443264 72.1836451 84.3928937 48.8644535 84.3928937 48.8644535 69.582537 72.1836451 69.582537"></polyline>
            <path d="M120.059032,11.2470363 C120.059032,7.09488315 116.68644,3.72905461 112.526943,3.72905461 C111.510066,3.72905461 110.542183,3.93262089 109.65629,4.29584698 C108.445437,1.75925162 105.86075,0 102.858113,0 C98.8236009,0 95.5399982,3.16725164 95.343022,7.14377898 C90.97755,7.50301355 87.5449652,11.1472489 87.5449652,15.5967684 C87.5449652,16.7173809 87.7649385,17.7861037 88.159891,18.7660159 L112.678925,18.7660159 L112.678925,18.7580328 C116.76643,18.677205 120.059032,15.3482978 120.059032,11.2470363" id="Fill-139" fill="#474A49"></path>
            <path d="M96.5438767,35.2478984 C96.5438767,40.2292846 98.3856538,42.553333 102.889109,42.553333 C107.34357,42.553333 109.226342,40.4827447 109.226342,35.2478984 C109.226342,30.1148352 107.127596,27.940468 102.889109,27.940468 C98.0896897,27.940468 96.5438767,30.1996544 96.5438767,35.2478984" id="Fill-140" fill="#474A49"></path>
            <path d="M103.363052,47.8979453 C91.4004989,47.8979453 87.5449652,53.3892452 87.5449652,65.6581043 C87.5449652,72.4526274 88.9907904,77.2104899 92.241397,80.0813732 L92.241397,58.8935173 C92.241397,58.3147505 92.6513476,57.8457498 93.1572863,57.8457498 C93.6632252,57.8457498 94.0721757,58.3147505 94.0721757,58.8935173 L94.0721757,81.3656368 C94.1071713,81.3855941 95.5909919,116.25929 95.5909919,116.25929 C95.6459852,117.16037 96.3698978,118.18818 97.2017969,118.542425 L100.266426,119.530321 C101.150319,119.715925 101.876232,119.129175 101.876232,118.226099 L101.876232,85.9728204 C101.876232,85.0707424 102.541151,84.3313178 103.355053,84.3313178 C104.168954,84.3313178 104.833874,85.0707424 104.833874,85.9728204 L104.833874,118.226099 C104.833874,119.129175 105.558786,119.715925 106.443679,119.530321 L109.506309,118.542425 C110.340208,118.18818 111.06412,117.16037 111.118114,116.25929 C111.118114,116.25929 112.600934,81.5063369 112.63693,81.4853816 L112.63693,59.0172538 C112.63693,58.4384869 113.04688,57.9694862 113.551819,57.9694862 C114.057758,57.9694862 114.466709,58.4384869 114.466709,59.0172538 L114.466709,80.2410329 C117.694318,77.4699372 119.16414,72.7659599 119.16414,65.6581043 C119.16414,53.1826852 113.928774,47.8979453 103.363052,47.8979453" id="Fill-141" fill="#474A49"></path>
            <path d="M8.9989114,35.2478984 C8.9989114,40.2292846 10.8396887,42.553333 15.3441438,42.553333 C19.7976051,42.553333 21.6813771,40.4827447 21.6813771,35.2478984 C21.6813771,30.1148352 19.5826311,27.940468 15.3441438,27.940468 C10.5447244,27.940468 8.9989114,30.1996544 8.9989114,35.2478984" id="Fill-142" fill="#49859E"></path>
            <path d="M15.8180865,47.8979453 C3.85653347,47.8979453 0,53.3892452 0,65.6581043 C0,72.4526274 1.4458251,77.2104899 4.69743174,80.0813732 L4.69743174,58.8935173 C4.69743174,58.3147505 5.10638229,57.8457498 5.6113212,57.8457498 C6.11725998,57.8457498 6.52721041,58.3147505 6.52721041,58.8935173 L6.52721041,81.3656368 C6.56320604,81.3855941 8.04602666,116.25929 8.04602666,116.25929 C8.10002014,117.16037 8.82493245,118.18818 9.65583194,118.542425 L12.7204612,119.530321 C13.6063541,119.715925 14.3312663,119.129175 14.3312663,118.226099 L14.3312663,85.9728204 C14.3312663,85.0707424 14.9971858,84.3313178 15.8100874,84.3313178 C16.6229892,84.3313178 17.2899084,85.0707424 17.2899084,85.9728204 L17.2899084,118.226099 C17.2899084,119.129175 18.0138209,119.715925 18.8997137,119.530321 L21.9623432,118.542425 C22.7942425,118.18818 23.5201547,117.16037 23.5741482,116.25929 C23.5741482,116.25929 25.0549691,81.5063369 25.0909647,81.4853816 L25.0909647,59.0172538 C25.0909647,58.4384869 25.5009152,57.9694862 26.0058541,57.9694862 C26.5117928,57.9694862 26.9207435,58.4384869 26.9207435,59.0172538 L26.9207435,80.2410329 C30.1493529,77.4699372 31.6181752,72.7659599 31.6181752,65.6581043 C31.6181752,53.1826852 26.3838083,47.8979453 15.8180865,47.8979453" id="Fill-143" fill="#49859E"></path>
        </g>
    </g>
</svg>